<svg width="142" height="42" viewBox="0 0 142 42" fill="none" xmlns="http://www.w3.org/2000/svg">
<path fill-rule="evenodd" clip-rule="evenodd" d="M31.8009 27.4802C30.9548 29.3799 30.5498 30.2278 29.4605 31.9066C27.9401 34.2508 25.798 37.1697 23.1436 37.1942C20.7841 37.2164 20.1785 35.6391 16.9772 35.6569C13.7759 35.6745 13.1073 37.2219 10.7478 37.2001C8.09307 37.1754 6.063 34.539 4.54273 32.1957C0.29191 25.6415 -0.152172 17.9497 2.46896 13.8608C4.33235 10.9546 7.27078 9.25349 10.0348 9.25349C12.8484 9.25349 14.6173 10.8166 16.9436 10.8166C19.2001 10.8166 20.5759 9.25098 23.8285 9.25098C26.2874 9.25098 28.8928 10.6067 30.7494 12.9525C24.6671 16.3285 25.6548 25.1278 31.8009 27.4802Z" fill="white"/>
<path fill-rule="evenodd" clip-rule="evenodd" d="M21.3614 6.63346C22.5425 5.09715 23.4407 2.92645 23.115 0.708984C21.1849 0.843605 18.9259 2.08771 17.6071 3.7097C16.4102 5.18248 15.4223 7.36642 15.8071 9.48866C17.9146 9.55471 20.0951 8.27976 21.3614 6.63346Z" fill="white"/>
<path fill-rule="evenodd" clip-rule="evenodd" d="M140.999 30.5588H132.452C132.486 31.7323 132.899 32.7614 133.693 33.4365C134.412 34.0433 135.343 34.3201 136.487 34.3201C137.755 34.3201 138.904 34.1027 139.943 33.6869L140.391 35.6865C139.182 36.2253 137.746 36.4826 136.089 36.4826C134.107 36.4826 132.546 35.8923 131.411 34.7086C130.278 33.525 129.707 31.9343 129.707 29.9414C129.707 27.9787 130.237 26.3524 131.289 25.0466C132.402 23.6596 133.896 22.9664 135.775 22.9664C137.626 22.9664 139.023 23.6593 139.969 25.0462C140.722 26.1535 141.103 27.572 141.103 29.193C141.103 29.7055 141.066 30.2235 140.999 30.5588ZM128.855 25.7958C128.689 25.7438 128.25 25.7225 127.936 25.7225C126.934 25.7225 126.151 26.1048 125.605 26.8692C125.129 27.5474 124.882 28.3895 124.882 29.431V36.0912H122.068V27.3423C122.068 25.8551 122.007 24.5235 121.957 23.1823H124.436L124.542 25.8647H124.619C124.917 25.0265 125.389 24.2642 126.044 23.7518C126.677 23.2834 127.388 23.0288 128.126 23.0288C128.386 23.0288 128.689 23.0123 128.855 23.0474V25.7958ZM118.556 34.5636C117.374 35.8781 115.81 36.5363 113.862 36.5363C111.978 36.5363 110.475 35.9044 109.359 34.6397C108.244 33.3788 107.688 31.7786 107.688 29.8577C107.688 27.8474 108.262 26.1978 109.414 24.9175C110.567 23.6301 112.114 22.9978 114.066 22.9978C115.954 22.9978 117.465 23.6232 118.608 24.894C119.695 26.1158 120.24 27.706 120.24 29.645C120.24 31.6453 119.681 33.2774 118.556 34.5636ZM106.841 25.5294H103.861V31.7313C103.861 33.333 104.352 34.127 105.46 34.127C105.97 34.127 106.354 34.0893 106.692 34.0013L106.756 36.1865C106.192 36.4001 105.446 36.5086 104.532 36.5086C103.412 36.5086 102.497 36.1659 101.866 35.4663C101.227 34.7751 100.882 33.607 100.882 31.9685V25.5294H99.0615V23.1823H100.882V20.8829L103.861 20.0277V23.1823H106.841V25.5294ZM96.829 34.9314C95.6661 35.9837 94.0536 36.5066 91.9853 36.5066C90.0684 36.5066 88.5357 36.1309 87.3783 35.3862L88.04 32.9825C89.2873 33.727 90.6578 34.1049 92.149 34.1049C93.2262 34.1049 94.0592 33.8566 94.6577 33.3706C95.2523 32.8826 95.5514 32.2286 95.5514 31.399C95.5514 30.6788 95.3049 30.0639 94.8156 29.5623C94.3189 29.0647 93.5077 28.605 92.3635 28.1737C89.2546 27.0017 87.6972 25.2831 87.6972 23.0217C87.6972 21.5441 88.2403 20.3291 89.3413 19.3863C90.4403 18.4448 91.8951 17.9712 93.7081 17.9712C95.3249 17.9712 96.6709 18.2584 97.7453 18.8243L97.0264 21.1763C96.0244 20.6257 94.8855 20.3466 93.6153 20.3466C92.6111 20.3466 91.8237 20.6054 91.2573 21.0924C90.7838 21.5439 90.5459 22.0869 90.5459 22.7258C90.5459 23.4335 90.8187 24.0239 91.3626 24.4937C91.8388 24.9192 92.7008 25.3795 93.9447 25.8776C95.4797 26.496 96.6009 27.2308 97.3244 28.0704C98.0434 28.9068 98.4055 29.9469 98.4055 31.1915C98.4052 32.725 97.8764 33.9749 96.829 34.9314ZM80.3716 34.8308C79.3101 35.9658 77.9858 36.5361 76.4103 36.5361C74.7141 36.5361 73.5718 35.923 72.7442 34.6893V41.6235H69.9304V27.5251C69.9304 26.1373 69.878 24.8588 69.8094 23.1823H72.3083L72.4731 25.3617H72.5221C73.4781 23.8529 74.9147 23.0207 76.8489 23.0207C78.3619 23.0207 79.6235 23.6095 80.6339 24.8234C81.6476 26.0315 82.1519 27.6235 82.1519 29.5989C82.1519 31.8131 81.56 33.5456 80.3716 34.8308ZM66.2892 34.8308C65.2304 35.9658 63.9083 36.5361 62.337 36.5361C60.6357 36.5361 59.5029 35.923 58.6753 34.6893V41.6235H55.8615V27.5251C55.8615 26.1373 55.7963 24.8588 55.7239 23.1823H58.2295L58.3869 25.3617H58.4366C59.3911 23.8529 60.8305 23.0207 62.7673 23.0207C64.2792 23.0207 65.5374 23.6095 66.5546 24.8234C67.5621 26.0315 68.0694 27.6235 68.0694 29.5989C68.0694 31.8131 67.4775 33.5456 66.2892 34.8308ZM51.0568 36.0912L49.397 30.8941H43.6195L42.0348 36.0912H39.084L44.8021 18.1529H48.34L54.0924 36.0912H51.0568ZM135.564 24.9661C134.634 24.9661 133.879 25.4486 133.296 26.2275C132.822 26.8493 132.538 27.5412 132.452 28.547H138.386C138.401 27.5412 138.221 26.8786 137.835 26.252C137.34 25.4536 136.582 24.9661 135.564 24.9661ZM46.4932 20.6676H46.4435C46.2645 21.5059 45.987 22.6216 45.5966 24.1195L44.1195 28.8823H48.8917L47.3948 24.1195C47.2327 23.6365 46.9305 22.3441 46.4932 20.6676ZM75.9266 25.2871C75.2209 25.2871 74.5904 25.5213 74.0166 25.9928C73.445 26.4711 73.0599 27.0897 72.8829 27.8558C72.7954 28.2149 72.7442 28.506 72.7442 28.7393V30.8998C72.7442 31.8455 73.0355 32.645 73.6094 33.295C74.1796 33.9389 74.9287 34.266 75.8389 34.266C76.9173 34.266 77.7534 33.8501 78.352 33.011C78.951 32.1734 79.2527 31.0698 79.2527 29.6947C79.2527 28.4337 78.9698 27.3906 78.4091 26.5737C77.789 25.7225 76.9623 25.2871 75.9266 25.2871ZM113.962 25.1076C112.822 25.1076 111.951 25.6199 111.356 26.6516C110.841 27.5004 110.588 28.5371 110.588 29.7628C110.588 30.9576 110.841 31.9761 111.356 32.8271C111.965 33.8568 112.828 34.3691 113.94 34.3691C115.023 34.3691 115.88 33.8497 116.492 32.7949C117.023 31.9333 117.288 30.8995 117.288 29.713C117.288 28.5251 117.033 27.5004 116.527 26.6515C115.921 25.6199 115.071 25.1076 113.962 25.1076ZM61.8405 25.2871C61.1385 25.2871 60.5042 25.5213 59.931 25.9928C59.3582 26.4711 58.9843 27.0897 58.8074 27.8558C58.7208 28.2149 58.6754 28.506 58.6754 28.7393V30.8998C58.6754 31.8455 58.9578 32.645 59.533 33.295C60.1032 33.9389 60.8483 34.266 61.761 34.266C62.8312 34.266 63.6729 33.8501 64.2696 33.011C64.8673 32.1734 65.1637 31.0698 65.1637 29.6947C65.1637 28.4337 64.886 27.3906 64.3225 26.5737C63.704 25.7225 62.8791 25.2871 61.8405 25.2871Z" fill="white"/>
<path d="M42.8367 11.0849L42.0472 13.7185H40.3184L43.2588 4.42529H45.3959L48.3772 13.7185H46.5804L45.75 11.0849H42.8367ZM45.4641 9.80274L44.7426 7.51386C44.5657 6.94855 44.4159 6.31434 44.2797 5.77653H44.2525C44.1163 6.31434 43.9801 6.96246 43.8169 7.51386L43.109 9.80274H45.4641Z" fill="white"/>
<path d="M50.2831 7.00391L51.3586 10.4095C51.5491 11.0025 51.6852 11.5403 51.8077 12.0917H51.8485C51.971 11.5403 52.1208 11.0162 52.2978 10.4095L53.346 7.00391H55.1157L52.5836 13.7187H50.9365L48.4727 7.00391H50.2831Z" fill="white"/>
<path d="M59.7866 13.7185L59.6777 12.974H59.6368C59.2285 13.4979 58.5342 13.8703 57.6766 13.8703C56.3426 13.8703 55.5938 12.8914 55.5938 11.8709C55.5938 10.1752 57.0776 9.32015 59.5279 9.3339V9.22359C59.5279 8.78234 59.351 8.05157 58.1803 8.05157C57.5268 8.05157 56.8462 8.25844 56.397 8.54797L56.0703 7.44502C56.5604 7.14158 57.4179 6.85205 58.4661 6.85205C60.5897 6.85205 61.2023 8.21703 61.2023 9.67875V12.1054C61.2023 12.712 61.2296 13.305 61.2977 13.7185H59.7866ZM59.5688 10.437C58.3845 10.4094 57.2546 10.6714 57.2546 11.6917C57.2546 12.3536 57.6766 12.6568 58.2074 12.6568C58.8745 12.6568 59.3646 12.2156 59.5144 11.7331C59.5551 11.609 59.5688 11.4711 59.5688 11.3608V10.437Z" fill="white"/>
<path d="M64.6606 3.9292H62.9727V13.7188H64.6606V3.9292Z" fill="white"/>
<path d="M68.2535 5.12898C68.2535 5.63913 67.886 6.03897 67.3006 6.03897C66.7425 6.03897 66.375 5.63913 66.375 5.12898C66.375 4.60508 66.756 4.20508 67.3142 4.20508C67.886 4.20508 68.2399 4.60508 68.2535 5.12898ZM66.4702 7.00411H68.1581V13.7189H66.4702V7.00411Z" fill="white"/>
<path d="M69.9004 13.7188C69.9275 13.2638 69.9548 12.5193 69.9548 11.8299V3.9292H71.6292V7.92775H71.6565C72.0649 7.27979 72.7863 6.85229 73.7801 6.85229C75.4 6.85229 76.5568 8.21728 76.5433 10.258C76.5433 12.671 75.0322 13.8705 73.5348 13.8705C72.6773 13.8705 71.9149 13.5396 71.4385 12.7122H71.4112L71.3295 13.7188H69.9004ZM71.6292 10.9474C71.6292 11.0852 71.6428 11.2232 71.6701 11.3472C71.847 12.0229 72.4323 12.533 73.1538 12.533C74.202 12.533 74.8419 11.6782 74.8419 10.3269C74.8419 9.14118 74.2838 8.17603 73.1674 8.17603C72.4868 8.17603 71.8742 8.67244 71.6837 9.41696C71.6565 9.54102 71.6292 9.69274 71.6292 9.85821V10.9474Z" fill="white"/>
<path d="M79.6079 3.9292H77.9199V13.7188H79.6079V3.9292Z" fill="white"/>
<path d="M82.6024 10.8369C82.6433 12.0503 83.5826 12.5742 84.6444 12.5742C85.4204 12.5742 85.9787 12.4639 86.4823 12.2707L86.7273 13.4428C86.1554 13.6773 85.3659 13.8563 84.4132 13.8563C82.2623 13.8563 80.9961 12.519 80.9961 10.4647C80.9961 8.60329 82.1123 6.85205 84.2361 6.85205C86.387 6.85205 87.0947 8.64453 87.0947 10.1198C87.0947 10.437 87.0676 10.6851 87.0405 10.8369H82.6024ZM85.5157 9.65109C85.5291 9.03062 85.257 8.01032 84.1406 8.01032C83.1059 8.01032 82.6705 8.96172 82.6023 9.65109H85.5157Z" fill="white"/>
<path d="M97.5627 10.2992C97.5627 12.7673 95.8474 13.8703 94.1593 13.8703C92.2807 13.8703 90.8379 12.5604 90.8379 10.4095C90.8379 8.20329 92.2671 6.85205 94.2684 6.85205C96.2422 6.85205 97.5627 8.25861 97.5627 10.2992ZM92.5669 10.3681C92.5669 11.6642 93.1929 12.6431 94.214 12.6431C95.1667 12.6431 95.8339 11.6919 95.8339 10.3405C95.8339 9.29266 95.3709 8.09314 94.2275 8.09314C93.0432 8.09314 92.5669 9.25125 92.5669 10.3681Z" fill="white"/>
<path d="M98.9392 9.00296C98.9392 8.23095 98.9253 7.58282 98.8848 7.00377H100.355L100.437 8.01032H100.477C100.763 7.48626 101.485 6.85205 102.587 6.85205C103.744 6.85205 104.943 7.61032 104.943 9.73373V13.7185H103.268V9.92686C103.268 8.96155 102.914 8.23095 102.002 8.23095C101.335 8.23095 100.872 8.71343 100.695 9.22358C100.641 9.3753 100.627 9.58218 100.627 9.77514V13.7185H98.9396V9.00296H98.9392Z" fill="white"/>
<path d="M111.464 5.0874V7.00394H113.056V8.27253H111.464V11.2369C111.464 12.0505 111.681 12.4778 112.321 12.4778C112.607 12.4778 112.825 12.4364 112.975 12.3951L113.002 13.6912C112.757 13.7876 112.321 13.8567 111.79 13.8567C111.177 13.8567 110.66 13.6498 110.347 13.3051C109.993 12.919 109.83 12.3123 109.83 11.43V8.27253H108.877V7.00394H109.83V5.48724L111.464 5.0874Z" fill="white"/>
<path d="M114.322 3.9292H116.01V7.92775H116.038C116.242 7.61056 116.514 7.3487 116.868 7.15573C117.195 6.9626 117.589 6.85229 118.011 6.85229C119.141 6.85229 120.325 7.61056 120.325 9.76164V13.7188H118.651V9.9546C118.651 8.97571 118.297 8.24494 117.372 8.24494C116.718 8.24494 116.255 8.68618 116.078 9.19617C116.024 9.33414 116.01 9.51352 116.01 9.70648V13.7188H114.322V3.9292H114.322Z" fill="white"/>
<path d="M123.294 10.8369C123.335 12.0503 124.274 12.5742 125.336 12.5742C126.112 12.5742 126.67 12.4639 127.174 12.2707L127.419 13.4428C126.847 13.6773 126.057 13.8563 125.104 13.8563C122.954 13.8563 121.688 12.519 121.688 10.4647C121.688 8.60329 122.804 6.85205 124.927 6.85205C127.078 6.85205 127.786 8.64453 127.786 10.1198C127.786 10.437 127.759 10.6851 127.732 10.8369H123.294ZM126.207 9.65109C126.221 9.03062 125.948 8.01032 124.832 8.01032C123.798 8.01032 123.362 8.96172 123.294 9.65109H126.207Z" fill="white"/>
</svg>
