<svg width="145" height="38" viewBox="0 0 145 38" fill="none" xmlns="http://www.w3.org/2000/svg">
<path d="M69.4525 21.2397C66.3402 21.2397 63.8764 23.5766 63.8764 26.8219C63.8764 29.9376 66.3402 32.4042 69.4525 32.4042C72.5648 32.4042 75.0287 30.0674 75.0287 26.8219C75.0287 23.4466 72.5648 21.2397 69.4525 21.2397ZM69.4525 30.0674C67.7667 30.0674 66.3402 28.6393 66.3402 26.6921C66.3402 24.7447 67.7667 23.3166 69.4525 23.3166C71.1383 23.3166 72.5648 24.615 72.5648 26.6921C72.5648 28.6393 71.1383 30.0674 69.4525 30.0674ZM57.3925 21.2397C54.2803 21.2397 51.8163 23.5766 51.8163 26.8219C51.8163 29.9376 54.2803 32.4042 57.3925 32.4042C60.5048 32.4042 62.9686 30.0674 62.9686 26.8219C62.9686 23.4466 60.5048 21.2397 57.3925 21.2397ZM57.3925 30.0674C55.7066 30.0674 54.2803 28.6393 54.2803 26.6921C54.2803 24.7447 55.7066 23.3166 57.3925 23.3166C59.0783 23.3166 60.5048 24.615 60.5048 26.6921C60.5048 28.6393 59.0783 30.0674 57.3925 30.0674ZM42.9981 22.9274V25.2641H48.5744C48.4447 26.5625 47.926 27.6011 47.2776 28.2501C46.4996 29.0291 45.2028 29.9376 42.9981 29.9376C39.4969 29.9376 36.9034 27.2115 36.9034 23.7062C36.9034 20.2011 39.6265 17.475 42.9981 17.475C44.8138 17.475 46.2401 18.254 47.2776 19.1625L48.9634 17.475C47.5369 16.1766 45.7214 15.1382 43.1278 15.1382C38.4595 15.1382 34.4395 19.0329 34.4395 23.7062C34.4395 28.3797 38.4594 32.2746 43.1278 32.2746C45.7214 32.2746 47.5369 31.4954 49.093 29.8078C50.6492 28.2501 51.168 26.0432 51.168 24.3554C51.168 23.836 51.168 23.3168 51.0383 22.9274H42.9981ZM101.872 24.7448C101.353 23.4466 100.056 21.2397 97.2037 21.2397C94.3505 21.2397 92.0166 23.4466 92.0166 26.8219C92.0166 29.9376 94.3507 32.4042 97.463 32.4042C99.9271 32.4042 101.483 30.8464 102.002 29.9376L100.186 28.6393C99.5378 29.5482 98.7598 30.1972 97.463 30.1972C96.1662 30.1972 95.3882 29.678 94.7399 28.5095L102.131 25.3939L101.872 24.7448ZM94.3507 26.5623C94.3507 24.4852 96.0365 23.3168 97.2038 23.3168C98.1115 23.3168 99.0193 23.836 99.2786 24.4852L94.3507 26.5623ZM88.2558 31.8848H90.7199V15.6574H88.2558V31.8848ZM84.3655 22.408C83.7171 21.759 82.6797 21.1098 81.3829 21.1098C78.6596 21.1098 76.066 23.5764 76.066 26.6921C76.066 29.8076 78.53 32.1446 81.3829 32.1446C82.6797 32.1446 83.7171 31.4954 84.2359 30.8462H84.3655V31.6252C84.3655 33.7025 83.1984 34.8707 81.3829 34.8707C79.9565 34.8707 78.919 33.8323 78.6597 32.9233L76.5849 33.8323C77.2332 35.2603 78.7893 37.0776 81.5128 37.0776C84.3657 37.0776 86.6997 35.3901 86.6997 31.3654V21.4993H84.3655V22.408ZM81.5126 30.0674C79.8268 30.0674 78.4003 28.6393 78.4003 26.6921C78.4003 24.7447 79.8268 23.3166 81.5126 23.3166C83.1982 23.3166 84.4952 24.7447 84.4952 26.6921C84.4952 28.6393 83.1984 30.0674 81.5126 30.0674ZM113.154 15.6574H107.318V31.8848H109.782V25.7835H113.154C115.877 25.7835 118.471 23.836 118.471 20.7203C118.471 17.6047 115.877 15.6574 113.154 15.6574ZM113.284 23.4466H109.782V17.8644H113.284C115.099 17.8644 116.137 19.4223 116.137 20.5904C116.007 22.0186 114.969 23.4466 113.284 23.4466ZM128.197 21.1099C126.381 21.1099 124.566 21.8889 123.917 23.5766L126.122 24.4854C126.641 23.5766 127.419 23.317 128.326 23.317C129.623 23.317 130.79 24.0961 130.92 25.394V25.5238C130.531 25.2641 129.493 24.8748 128.456 24.8748C126.122 24.8748 123.788 26.1732 123.788 28.5097C123.788 30.7167 125.733 32.1448 127.808 32.1448C129.493 32.1448 130.272 31.3656 130.92 30.5869H131.05V31.885H133.384V25.6538C133.125 22.7976 130.92 21.1099 128.197 21.1099ZM127.937 30.0674C127.159 30.0674 125.992 29.678 125.992 28.6393C125.992 27.3411 127.419 26.9517 128.586 26.9517C129.623 26.9517 130.142 27.2115 130.79 27.4711C130.531 29.0289 129.234 30.0674 127.937 30.0674ZM141.553 21.4993L138.83 28.5095H138.701L135.848 21.4993H133.254L137.534 31.3654L135.07 36.8181H137.534L144.147 21.4993H141.553ZM119.768 31.8848H122.232V15.6574H119.768V31.8848Z" fill="white"/>
<path d="M38.9611 6.0183H43.0015C43.0246 6.11055 43.0435 6.2219 43.0591 6.35254C43.0742 6.48318 43.082 6.61381 43.082 6.74428C43.082 7.27448 43.0015 7.77393 42.8403 8.24229C42.6792 8.71099 42.4259 9.12966 42.0806 9.4983C41.7123 9.89021 41.2709 10.1939 40.7569 10.4088C40.2427 10.6237 39.6556 10.7314 38.9957 10.7314C38.3972 10.7314 37.833 10.6237 37.3036 10.4088C36.7741 10.1939 36.3136 9.89421 35.9223 9.50994C35.5308 9.12584 35.2201 8.6706 34.9899 8.1444C34.7596 7.61819 34.6445 7.04395 34.6445 6.42168C34.6445 5.79941 34.7596 5.22517 34.9899 4.69896C35.2201 4.17276 35.5308 3.71752 35.9223 3.33326C36.3136 2.94932 36.7741 2.64966 37.3036 2.43459C37.833 2.21952 38.3972 2.11182 38.9957 2.11182C39.6633 2.11182 40.26 2.227 40.7856 2.45752C41.3112 2.68805 41.7621 3.00683 42.1382 3.41403L41.0677 4.46262C40.7989 4.17858 40.4997 3.96135 40.1698 3.8116C39.8397 3.66168 39.4446 3.58689 38.9842 3.58689C38.6082 3.58689 38.2512 3.6542 37.9135 3.78849C37.5758 3.92295 37.2805 4.11309 37.0273 4.35891C36.7741 4.60489 36.5726 4.90257 36.423 5.25193C36.2734 5.60162 36.1985 5.99154 36.1985 6.42168C36.1985 6.85199 36.2734 7.24174 36.423 7.59127C36.5726 7.94096 36.7758 8.23847 37.0331 8.48429C37.2901 8.73027 37.5875 8.92041 37.9252 9.05487C38.2627 9.18933 38.6233 9.25647 39.0071 9.25647C39.4446 9.25647 39.8148 9.19315 40.118 9.06634C40.421 8.93952 40.6802 8.77648 40.895 8.57653C41.0484 8.43825 41.1807 8.26357 41.2921 8.05215C41.4032 7.84107 41.4895 7.60473 41.5511 7.34345H38.9611V6.0183Z" fill="white"/>
<path d="M45.9251 3.77146V5.68431H49.2286V7.15938H45.9251V9.0724H49.597V10.5473H44.3711V2.29639H49.597V3.77146H45.9251Z" fill="white"/>
<path d="M52.7749 10.5473V3.77146H50.4727V2.29639H56.6311V3.77146H54.3289V10.5473H52.7749Z" fill="white"/>
<path d="M61.8216 2.29639H60.2676V10.5473H61.8216V2.29639Z" fill="white"/>
<path d="M65.23 10.5473V3.77146H62.9277V2.29639H69.0862V3.77146H66.784V10.5473H65.23Z" fill="white"/>
<path d="M76.395 10.7315C75.7811 10.7315 75.2113 10.62 74.6856 10.3973C74.1598 10.1746 73.7054 9.86927 73.3216 9.48118C72.9377 9.09326 72.6367 8.6362 72.4181 8.10982C72.1994 7.58379 72.0898 7.02085 72.0898 6.42168C72.0898 5.82234 72.1993 5.25974 72.4181 4.73353C72.6369 4.20733 72.9379 3.75027 73.3216 3.36218C73.7054 2.97425 74.1598 2.66893 74.6856 2.44605C75.2113 2.22334 75.7811 2.11182 76.395 2.11182C77.0088 2.11182 77.5788 2.22334 78.1046 2.44605C78.63 2.66893 79.0846 2.97425 79.4686 3.36218C79.8523 3.75027 80.1535 4.20733 80.3721 4.73353C80.5908 5.25974 80.7003 5.82234 80.7003 6.42168C80.7003 7.02085 80.5909 7.58379 80.3721 8.10982C80.1535 8.6362 79.8521 9.09326 79.4686 9.48118C79.0846 9.86927 78.63 10.1746 78.1046 10.3973C77.5788 10.62 77.0088 10.7315 76.395 10.7315ZM76.395 9.25647C76.7789 9.25647 77.1376 9.18733 77.4712 9.04905C77.805 8.91077 78.0968 8.7188 78.3461 8.47282C78.5955 8.227 78.7912 7.92949 78.9332 7.5798C79.0751 7.23027 79.1462 6.84417 79.1462 6.42168C79.1462 5.99919 79.0751 5.61326 78.9332 5.26356C78.7912 4.91403 78.5955 4.61653 78.3461 4.37054C78.0968 4.12473 77.805 3.93259 77.4712 3.79431C77.1375 3.65603 76.7787 3.58689 76.395 3.58689C76.0113 3.58689 75.6526 3.65603 75.3188 3.79431C74.985 3.93259 74.6933 4.12473 74.4439 4.37054C74.1944 4.61653 73.9988 4.91403 73.857 5.26356C73.7149 5.61326 73.644 5.99919 73.644 6.42168C73.644 6.84417 73.7149 7.23027 73.857 7.5798C73.9988 7.92949 74.1944 8.227 74.4439 8.47282C74.6933 8.7188 74.985 8.91077 75.3188 9.04905C75.6527 9.18733 76.0113 9.25647 76.395 9.25647Z" fill="white"/>
<path d="M81.9551 2.29639H83.7622L87.0774 7.82769H87.1696L87.0774 6.23744V2.29639H88.6199V10.5473H86.9853L83.486 4.70486H83.3938L83.486 6.29511V10.5473H81.9551V2.29639Z" fill="white"/>
<path fill-rule="evenodd" clip-rule="evenodd" d="M22.6439 12.1073L2.47266 0.489258L18.4059 16.3575L22.6439 12.1073Z" fill="white"/>
<path fill-rule="evenodd" clip-rule="evenodd" d="M0.600164 0.607422C0.523295 0.747366 0.439453 0.909084 0.439453 1.08726V33.9636C0.439453 34.0667 0.493078 34.1639 0.520638 34.2553L17.3943 17.3331L0.600164 0.607422Z" fill="white"/>
<path fill-rule="evenodd" clip-rule="evenodd" d="M18.4081 18.3052L1.86523 34.8958C1.91355 34.8771 1.96153 34.8554 2.00851 34.8284L22.9107 22.7891L18.4081 18.3052Z" fill="white"/>
<path fill-rule="evenodd" clip-rule="evenodd" d="M30.5501 16.6603L23.8806 12.8188L19.3828 17.3295L24.1497 22.0768L30.5501 18.3904C31.2165 18.0068 31.2165 17.0441 30.5501 16.6603Z" fill="white"/>
</svg>
